<?xml version="1.0" encoding="utf-8"?>
<!-- Generator: Adobe Illustrator 23.1.0, SVG Export Plug-In . SVG Version: 6.00 Build 0)  -->
<svg version="1.1" id="レイヤー_1" xmlns="http://www.w3.org/2000/svg" xmlns:xlink="http://www.w3.org/1999/xlink" x="0px"
	 y="0px" viewBox="0 0 400 54" style="enable-background:new 0 0 400 54;" xml:space="preserve">
<style type="text/css">
	.st0{fill:#66BBFF;}
	.st1{fill:#009977;}
	.st2{fill:#99CC44;}
</style>
<g>
	<g>
		<g>
			<g>
				<path class="st0" d="M99.8,45.4h45.4L154,0H95.1c-6.6,0-10.6,2.8-12.4,8.6h24.2l-3,15.5c0.8-4.2,4.4-6.6,10.2-6.6h22.3l-0.8,4.3
					h-18.8c-1.8,0-3.5,0.7-3.8,2.2l-1.7,9.1c-0.3,1.5,1.1,2.2,2.9,2.2H133l-0.8,4.3h-22.4c-5.7,0-8.4-2.4-7.6-6.6L99.8,45.4z"/>
				<path class="st1" d="M106.9,8.6H82.8l-7.1,36.7h24.2L106.9,8.6z M84.2,39.6l0.8-3.9h9.1l-0.8,3.9H84.2z M85.8,31.7l2.8-14.2h9.1
					l-2.8,14.2H85.8z"/>
				<path class="st2" d="M75.6,45.4l1.1-5.7h-27c-5.7,0-8.4-2.4-7.6-6.6l1.7-8.9c0.8-4.2,4.4-6.6,10.1-6.6h18l1.7-8.9h-65L0,54h87.5
					c6.6,0,10.6-2.8,12.4-8.6H75.6z M53,24l-1.8,9.1c-0.3,1.5,1.1,2.2,2.9,2.2h14.5l2.6-13.5H56.8C55,21.8,53.3,22.5,53,24z"/>
			</g>
		</g>
	</g>
	<g>
		<path d="M192,21.2c-1.4-0.8-3-1.1-4.6-1.1c-5.1,0-8.6,3.3-8.6,7.9c0,4.7,3.8,7.9,8.4,7.9c1.6,0,3.7-0.4,4.9-1l0.2,2.8
			c-1.7,0.6-3.8,0.7-5.1,0.7c-7.1,0-11.8-4.1-11.8-10.5c0-6.2,5-10.3,11.8-10.3c1.7,0,3.4,0.2,5,0.9L192,21.2z"/>
		<path d="M202.9,22.9c5,0,8.3,3.2,8.3,7.7c0,4.2-3.4,7.7-8.3,7.7c-4.9,0-8.3-3.5-8.3-7.7C194.6,26.2,197.9,22.9,202.9,22.9z
			 M202.9,36.1c3.5,0,5.1-2.9,5.1-5.5c0-2.8-1.9-5.5-5.1-5.5c-3.2,0-5.1,2.7-5.1,5.5C197.8,33.2,199.4,36.1,202.9,36.1z"/>
		<path d="M214.6,16.4h3V38h-3V16.4z"/>
		<path d="M229.4,22.9c5,0,8.3,3.2,8.3,7.7c0,4.2-3.4,7.7-8.3,7.7c-4.9,0-8.3-3.5-8.3-7.7C221.1,26.2,224.4,22.9,229.4,22.9z
			 M229.4,36.1c3.5,0,5.1-2.9,5.1-5.5c0-2.8-1.9-5.5-5.1-5.5c-3.2,0-5.1,2.7-5.1,5.5C224.3,33.2,225.9,36.1,229.4,36.1z"/>
		<path d="M240.9,23.3h2.8v2.3h0.1c0.8-1.5,2.5-2.6,4.3-2.6c0.9,0,1.3,0.1,2,0.2v2.4c-0.5-0.2-1.1-0.3-1.7-0.3c-2.7,0-4.4,2.3-4.4,6
			V38h-3V23.3z"/>
		<path d="M274.4,28.3c-0.3,2.9-1.1,4.6-2.3,6.1l3.5,3.5H272l-1.6-1.7c-1.4,1.5-3.2,2.1-5.7,2.1c-3.9,0-6.4-2-6.4-5
			c0-2.7,1.8-4.3,4.4-5.2c-1.1-1.2-2.1-2.4-2.1-4.1c0-2.9,2.3-4.2,5.2-4.2c2.6,0,4.9,1.2,4.9,4.1c0,2.3-2.3,3.8-4.4,4.7l4,4.2
			c0.8-1.1,1.1-2.3,1.2-4.3H274.4z M265.2,36.4c1.9,0,3-1.1,3.7-1.7l-4.8-5.1c-1.5,0.9-2.8,1.8-2.8,3.5
			C261.3,35.1,263.1,36.4,265.2,36.4z M265.1,27.1c1.2-0.5,3-1.6,3-3.1c0-1.6-1-2.2-2.4-2.2c-1.3,0-2.4,0.8-2.4,2.3
			C263.3,25.3,264.3,26.2,265.1,27.1z"/>
		<path d="M300,21.2c-1.4-0.8-3-1.1-4.6-1.1c-5.1,0-8.6,3.3-8.6,7.9c0,4.7,3.8,7.9,8.4,7.9c1.6,0,3.7-0.4,4.9-1l0.2,2.8
			c-1.7,0.6-3.8,0.7-5.1,0.7c-7.1,0-11.8-4.1-11.8-10.5c0-6.2,5-10.3,11.8-10.3c1.7,0,3.4,0.2,5,0.9L300,21.2z"/>
		<path d="M310.4,22.9c5,0,8.3,3.2,8.3,7.7c0,4.2-3.4,7.7-8.3,7.7c-4.9,0-8.3-3.5-8.3-7.7C302.1,26.2,305.4,22.9,310.4,22.9z
			 M310.4,36.1c3.5,0,5.1-2.9,5.1-5.5c0-2.8-1.9-5.5-5.1-5.5c-3.2,0-5.1,2.7-5.1,5.5C305.3,33.2,306.8,36.1,310.4,36.1z"/>
		<path d="M321.1,23.3h2.8v2.1h0.1c1.1-1.7,2.8-2.5,5.2-2.5c1.9,0,3.8,0.9,4.6,2.8c1.1-2.1,3.6-2.8,5.1-2.8c4.2,0,5.7,2.4,5.7,5.6
			V38h-3v-8.7c0-1.8-0.5-4.1-2.9-4.1c-3.1,0-4.3,2.7-4.3,5.4V38h-3v-8.7c0-1.8-0.5-4.1-2.9-4.1c-3.1,0-4.3,2.7-4.3,5.4V38h-3V23.3z"
			/>
		<path d="M350.4,25.5h-3.8v-2.2h3.8v-1.4c0-3.6,1-5.9,5.5-5.9c0.8,0,1.4,0.1,2,0.2l-0.1,2.2c-0.4-0.1-0.9-0.2-1.4-0.2
			c-2.6,0-2.9,1.5-2.9,3.5v1.6h4.3v2.2h-4.3V38h-3V25.5z"/>
		<path d="M366.9,22.9c5,0,8.3,3.2,8.3,7.7c0,4.2-3.4,7.7-8.3,7.7c-4.9,0-8.3-3.5-8.3-7.7C358.6,26.2,361.9,22.9,366.9,22.9z
			 M366.9,36.1c3.5,0,5.1-2.9,5.1-5.5c0-2.8-1.9-5.5-5.1-5.5c-3.2,0-5.1,2.7-5.1,5.5C361.8,33.2,363.4,36.1,366.9,36.1z"/>
		<path d="M377.6,23.3h2.8v2.3h0.1c0.8-1.5,2.5-2.6,4.3-2.6c0.9,0,1.3,0.1,2,0.2v2.4c-0.5-0.2-1.1-0.3-1.7-0.3c-2.7,0-4.4,2.3-4.4,6
			V38h-3V23.3z"/>
		<path d="M399.7,25.5h-4.3v8c0,1.7,1.1,2.6,2.5,2.6c0.9,0,1.6-0.3,2-0.5v2.3c-0.7,0.2-1.6,0.4-2.6,0.4c-3.1,0-5-1.3-5-4.3v-8.6
			h-3.7v-2.2h3.7v-3.4l3-0.9v4.3h4.3V25.5z"/>
	</g>
</g>
</svg>
