<?xml version="1.0" encoding="utf-8"?>
<!-- Generator: Adobe Illustrator 19.2.1, SVG Export Plug-In . SVG Version: 6.00 Build 0)  -->
<svg version="1.1" id="Layer_1" xmlns="http://www.w3.org/2000/svg" xmlns:xlink="http://www.w3.org/1999/xlink" x="0px" y="0px"
	 width="100px" height="42px" viewBox="0 0 100 42" style="enable-background:new 0 0 100 42;" xml:space="preserve">
<style type="text/css">
	.st0{fill-rule:evenodd;clip-rule:evenodd;fill:#FFEEBC;}
	.st1{fill:#231F20;}
	.st2{fill:none;stroke:#231F20;stroke-width:1.9998;stroke-miterlimit:22.9256;}
	.st3{fill-rule:evenodd;clip-rule:evenodd;fill:#231F20;}
</style>
<path class="st0" d="M50,0.3c27.4,0,49.7,9.1,49.7,20.4c0,11.2-22.3,20.4-49.7,20.4c-27.4,0-49.7-9.1-49.7-20.4
	C0.3,9.5,22.6,0.3,50,0.3"/>
<path class="st1" d="M85,6.6c-9-3.7-21.4-6-35-6s-26,2.3-35,6C6.1,10.3,0.6,15.2,0.6,20.7S6.1,31.1,15,34.8c9,3.7,21.4,6,35,6
	c13.7,0,26-2.3,35-6c8.9-3.6,14.4-8.6,14.4-14.1S93.9,10.3,85,6.6 M50,0c13.7,0,26.2,2.3,35.2,6c9.1,3.7,14.8,8.9,14.8,14.7
	c0,5.8-5.7,11-14.8,14.7c-9,3.7-21.5,6-35.2,6c-13.7,0-26.2-2.3-35.2-6C5.7,31.7,0,26.5,0,20.7C0,14.9,5.7,9.7,14.8,6
	C23.8,2.3,36.3,0,50,0z"/>
<path class="st2" d="M10.1,12.5"/>
<path class="st3" d="M18.9,11.5h8.9c0,0,6.5-0.1,5.9,5.5c-1,3.7-4.8,8-12.4,12h-4l3.1-11.8h3.4l-1.9,7.5c0,0,2.7-1.4,7.2-5.8
	c0,0,2.7-3.2-1.4-3.9l-10.1-0.2L18.9,11.5z"/>
<path class="st3" d="M35.6,18.4h3.2l-1.5,5.7c0,0-0.3,1.9,1.7,0.9c0,0,0.8-0.1,2.5-6.6h3.2l-1.7,5.5c0,0-1,2.3,1.3,2.2l-0.6,2.5
	c0,0-3.6,0.6-4.1-1c0,0-3.9,2-5.5,0.8c0,0-1-0.8-0.3-3.1L35.6,18.4z"/>
<path class="st3" d="M46.9,17.7l2.4-0.1c0,0-0.3,1.1,0.6,0.9h3.7l-0.7,3.1c0,0-1.6-0.5-2,0.9c0,0-0.8,2.4-0.6,3
	c0.1,0.3,0.5,0.5,1.7,0.5l-0.9,2.6c0,0-3.7,0.3-3.9-0.8c0,0-0.4-0.7-0.3-1.9l0.5-2.8h-1.9L46.9,17.7z"/>
<path class="st3" d="M55.7,18.4h3.8l-1.7,6.2c0,0-0.4,0.9,1.4,0.6l-0.7,3.2h-2.9c0,0-2.4-0.1-1.8-3L55.7,18.4z"/>
<path class="st3" d="M69.9,18.3c0,0-6.7,0.1-8.5,5.1c-0.5,1.7-0.5,4.5,1.9,5c1.1,0.2,3.8-0.2,4.2-0.8l-0.2,1h3.3l1.7-5.7h-2.6
	c0,0-1.9,3.2-4.2,2.4C64.8,25,64.5,23,67,22c1.2-0.5,2.8-1,5.9-0.9l0.7-2.8H69.9z"/>
<path class="st3" d="M75.3,18.4l-2.9,10.2h3.2c0,0,1.3-4.8,1.6-5.2c0.3-0.5,1.8-2.3,2.1-0.6c0,1.8-0.9,4.1-1.1,5.7h3.3l1.5-6.2
	c0,0,0.9-3.5-1.4-3.9c-1.1-0.3-2.3,0.4-2.8,0.8c0,0-0.5-0.3-0.3-0.8L75.3,18.4z"/>
<path class="st3" d="M57.4,13.1c0,0,0.3-2.4,2.9-1.8c1.4,0.3,1.3,2.6,0.7,3.2C60.2,15.5,57.6,15.7,57.4,13.1z"/>
<path class="st1" d="M82.2,9.1c-8.2-3-19.5-4.8-32-4.8s-23.8,1.8-32,4.8C10,12,5,16,5,20.4c0,4.4,5,8.4,13.1,11.3
	c8.2,3,19.5,4.8,32,4.8s23.8-1.8,32-4.8c8.1-2.9,13.1-6.9,13.1-11.3C95.3,16,90.3,12,82.2,9.1 M50.2,3.6c12.6,0,24,1.9,32.3,4.9
	c8.4,3,13.6,7.3,13.6,11.9c0,4.7-5.2,8.9-13.6,11.9c-8.3,3-19.7,4.9-32.3,4.9c-12.6,0-24-1.9-32.3-4.9c-8.4-3-13.6-7.3-13.6-11.9
	c0-4.7,5.2-8.9,13.6-11.9C26.2,5.4,37.6,3.6,50.2,3.6z"/>
<path class="st1" d="M99,8.7c-0.5,0.5-1.3,0.9-2.1,0.9c-0.8,0-1.6-0.3-2.1-0.9c-0.5-0.5-0.9-1.3-0.9-2.1s0.3-1.6,0.9-2.1l0,0
	c0.5-0.5,1.3-0.9,2.1-0.9c0.8,0,1.6,0.3,2.1,0.9c0.5,0.5,0.9,1.3,0.9,2.1C99.9,7.4,99.5,8.2,99,8.7L99,8.7z M96.8,9.2
	c0.7,0,1.4-0.3,1.9-0.8l0,0c0.5-0.5,0.8-1.2,0.8-1.9c0-0.7-0.3-1.4-0.8-1.9c-0.5-0.5-1.2-0.8-1.9-0.8c-0.7,0-1.4,0.3-1.9,0.8h0
	c-0.5,0.5-0.8,1.2-0.8,1.9c0,0.7,0.3,1.4,0.8,1.9C95.4,8.9,96.1,9.2,96.8,9.2z"/>
<path class="st3" d="M96.3,6.4h0.4c0.3,0,0.4,0,0.5,0c0.1,0,0.1-0.1,0.2-0.1c0-0.1,0.1-0.2,0.1-0.3c0-0.1,0-0.2-0.1-0.3
	c0-0.1-0.1-0.1-0.2-0.1c-0.1,0-0.2,0-0.5,0h-0.5V6.4z M95.7,8.5V4.9h1.2c0.3,0,0.5,0,0.7,0.1c0.1,0.1,0.2,0.2,0.3,0.3
	c0.1,0.2,0.1,0.3,0.1,0.6c0,0.3-0.1,0.5-0.2,0.7c-0.1,0.2-0.3,0.3-0.6,0.3c0.1,0.1,0.2,0.2,0.3,0.3c0.1,0.1,0.2,0.3,0.3,0.6l0.4,0.7
	h-0.7l-0.4-0.8c-0.2-0.3-0.3-0.5-0.3-0.5C96.8,7.1,96.7,7,96.7,7c-0.1,0-0.2,0-0.3,0h-0.1v1.5H95.7z"/>
</svg>
